<svg width="32" height="32" viewBox="0 0 32 32" fill="none" xmlns="http://www.w3.org/2000/svg">
<path d="M15.926 5.9869C11.7499 5.94359 11.0225 2.4832 6.87078 2.03091C-4.1454 0.8308 2.03869 35.0142 11.5122 29.2654C14.097 27.6968 12.9038 24.9688 15.926 25.0585C18.8648 25.1456 17.6994 27.6403 20.1496 29.2654C29.4051 35.404 35.8837 1.02458 24.8232 2.0309C20.5797 2.41699 20.1868 6.03109 15.926 5.9869Z" fill="#9A8AFF"/>
<path d="M12.2891 10.7399V10.7399C10.5428 10.1786 9.17408 8.80968 8.6128 7.06338V7.06338C8.57963 6.96091 8.48459 6.8916 8.37692 6.8916C8.26925 6.8916 8.17421 6.96091 8.14129 7.06338V7.06338C7.58 8.80968 6.21128 10.1786 4.46499 10.7399V10.7399C4.36227 10.7728 4.29297 10.8679 4.29297 10.9756C4.29297 11.0832 4.36227 11.1783 4.46474 11.2112V11.2112C6.21104 11.7725 7.57975 13.1414 8.14104 14.8877V14.8877C8.17421 14.9902 8.26925 15.0595 8.37692 15.0595C8.48459 15.0595 8.57963 14.9902 8.61255 14.8877V14.8877C9.17383 13.1414 10.5426 11.7725 12.2888 11.2112V11.2112C12.3916 11.1783 12.4609 11.0832 12.4609 10.9756C12.4609 10.8679 12.3916 10.7728 12.2891 10.7399Z" fill="white"/>
</svg>
