<svg width="199" height="42" viewBox="0 0 199 42" fill="none" xmlns="http://www.w3.org/2000/svg">
<path d="M22.389 5.98035C16.1249 5.91539 15.0338 0.7248 8.80617 0.0463613C-7.7181 -1.7538 1.55803 49.5214 15.7682 40.898C19.6454 38.5452 17.8557 34.4532 22.389 34.5877C26.7971 34.7185 25.0492 38.4605 28.7244 40.898C42.6077 50.1061 52.3256 -1.46313 35.7348 0.046356C29.3695 0.625492 28.7802 6.04664 22.389 5.98035Z" fill="#9A8AFF"/>
<path d="M16.9336 13.1099L16.2993 12.906C14.078 12.192 12.3371 10.451 11.6232 8.22979L11.4192 7.59506C11.3694 7.44136 11.2269 7.3374 11.0654 7.3374C10.9039 7.3374 10.7613 7.44136 10.7119 7.59506L10.5079 8.22979C9.79398 10.451 8.05311 12.192 5.83187 12.906L5.19748 13.1099C5.04341 13.1593 4.93945 13.3018 4.93945 13.4633C4.93945 13.6248 5.04341 13.7674 5.19711 13.8168L5.8315 14.0207C8.05274 14.7347 9.79361 16.4756 10.5075 18.6969L10.7116 19.3316C10.7613 19.4853 10.9039 19.5892 11.0654 19.5892C11.2269 19.5892 11.3694 19.4853 11.4188 19.3316L11.6228 18.6969C12.3368 16.4756 14.0776 14.7347 16.2989 14.0207L16.9333 13.8168C17.0873 13.7674 17.1913 13.6248 17.1913 13.4633C17.1913 13.3018 17.0873 13.1593 16.9336 13.1099Z" fill="white"/>
<path d="M56.6448 32V9.6H64.2928C66.9168 9.6 69.0714 10.0693 70.7568 11.008C72.4634 11.9253 73.7221 13.2267 74.5328 14.912C75.3648 16.576 75.7808 18.5387 75.7808 20.8C75.7808 23.0613 75.3648 25.0347 74.5328 26.72C73.7221 28.384 72.4634 29.6853 70.7568 30.624C69.0714 31.5413 66.9168 32 64.2928 32H56.6448ZM60.7408 28.48H64.1008C65.9781 28.48 67.4608 28.1813 68.5488 27.584C69.6368 26.9653 70.4154 26.0907 70.8848 24.96C71.3541 23.808 71.5888 22.4213 71.5888 20.8C71.5888 19.2 71.3541 17.824 70.8848 16.672C70.4154 15.52 69.6368 14.6347 68.5488 14.016C67.4608 13.3973 65.9781 13.088 64.1008 13.088H60.7408V28.48ZM87.0108 32.384C85.4108 32.384 83.9921 32.0427 82.7548 31.36C81.5174 30.6773 80.5468 29.7173 79.8428 28.48C79.1388 27.2427 78.7868 25.8133 78.7868 24.192C78.7868 22.5493 79.1281 21.088 79.8108 19.808C80.5148 18.528 81.4748 17.536 82.6908 16.832C83.9281 16.1067 85.3788 15.744 87.0428 15.744C88.6001 15.744 89.9761 16.0853 91.1708 16.768C92.3654 17.4507 93.2934 18.3893 93.9548 19.584C94.6374 20.7573 94.9788 22.0693 94.9788 23.52C94.9788 23.7547 94.9681 24 94.9468 24.256C94.9468 24.512 94.9361 24.7787 94.9148 25.056H82.8508C82.9361 26.2933 83.3628 27.264 84.1308 27.968C84.9201 28.672 85.8694 29.024 86.9788 29.024C87.8108 29.024 88.5041 28.8427 89.0588 28.48C89.6348 28.096 90.0614 27.6053 90.3388 27.008H94.4988C94.2001 28.0107 93.6988 28.928 92.9948 29.76C92.3121 30.5707 91.4588 31.2107 90.4348 31.68C89.4321 32.1493 88.2908 32.384 87.0108 32.384ZM87.0428 19.072C86.0401 19.072 85.1548 19.36 84.3868 19.936C83.6188 20.4907 83.1281 21.344 82.9148 22.496H90.8188C90.7548 21.4507 90.3708 20.6187 89.6668 20C88.9628 19.3813 88.0881 19.072 87.0428 19.072ZM98.4238 32V16.128H102.04L102.36 18.816C102.85 17.8773 103.554 17.1307 104.472 16.576C105.41 16.0213 106.509 15.744 107.768 15.744C109.73 15.744 111.256 16.3627 112.344 17.6C113.432 18.8373 113.976 20.6507 113.976 23.04V32H109.88V23.424C109.88 22.0587 109.602 21.0133 109.048 20.288C108.493 19.5627 107.629 19.2 106.456 19.2C105.304 19.2 104.354 19.6053 103.608 20.416C102.882 21.2267 102.52 22.3573 102.52 23.808V32H98.4238ZM124.965 32C123.301 32 121.967 31.5947 120.965 30.784C119.962 29.9733 119.461 28.5333 119.461 26.464V19.552H116.741V16.128H119.461L119.941 11.872H123.557V16.128H127.845V19.552H123.557V26.496C123.557 27.264 123.717 27.7973 124.036 28.096C124.378 28.3733 124.954 28.512 125.765 28.512H127.749V32H124.965ZM133.569 13.664C132.823 13.664 132.204 13.44 131.713 12.992C131.244 12.544 131.009 11.9787 131.009 11.296C131.009 10.6133 131.244 10.0587 131.713 9.632C132.204 9.184 132.823 8.96 133.569 8.96C134.316 8.96 134.924 9.184 135.393 9.632C135.884 10.0587 136.129 10.6133 136.129 11.296C136.129 11.9787 135.884 12.544 135.393 12.992C134.924 13.44 134.316 13.664 133.569 13.664ZM131.521 32V16.128H135.617V32H131.521ZM146.453 32.384C145.045 32.384 143.807 32.16 142.741 31.712C141.674 31.2427 140.821 30.6027 140.181 29.792C139.541 28.9813 139.157 28.0427 139.029 26.976H143.157C143.285 27.5947 143.626 28.128 144.181 28.576C144.757 29.0027 145.493 29.216 146.389 29.216C147.285 29.216 147.935 29.0347 148.341 28.672C148.767 28.3093 148.981 27.8933 148.981 27.424C148.981 26.7413 148.682 26.2827 148.085 26.048C147.487 25.792 146.655 25.5467 145.589 25.312C144.906 25.1627 144.213 24.9813 143.509 24.768C142.805 24.5547 142.154 24.288 141.557 23.968C140.981 23.6267 140.511 23.2 140.149 22.688C139.786 22.1547 139.605 21.504 139.605 20.736C139.605 19.328 140.159 18.144 141.269 17.184C142.399 16.224 143.978 15.744 146.005 15.744C147.882 15.744 149.375 16.1813 150.485 17.056C151.615 17.9307 152.287 19.136 152.501 20.672H148.629C148.394 19.4987 147.509 18.912 145.973 18.912C145.205 18.912 144.607 19.0613 144.181 19.36C143.775 19.6587 143.573 20.032 143.573 20.48C143.573 20.9493 143.882 21.3227 144.501 21.6C145.119 21.8773 145.941 22.1333 146.965 22.368C148.074 22.624 149.087 22.912 150.005 23.232C150.943 23.5307 151.69 23.9893 152.245 24.608C152.799 25.2053 153.077 26.0693 153.077 27.2C153.098 28.1813 152.842 29.0667 152.309 29.856C151.775 30.6453 151.007 31.264 150.005 31.712C149.002 32.16 147.818 32.384 146.453 32.384ZM163.277 32C161.613 32 160.28 31.5947 159.277 30.784C158.274 29.9733 157.773 28.5333 157.773 26.464V19.552H155.053V16.128H157.773L158.253 11.872H161.869V16.128H166.157V19.552H161.869V26.496C161.869 27.264 162.029 27.7973 162.349 28.096C162.69 28.3733 163.266 28.512 164.077 28.512H166.061V32H163.277ZM169.674 32V16.128H173.322L173.706 19.104C174.282 18.08 175.06 17.2693 176.042 16.672C177.044 16.0533 178.218 15.744 179.562 15.744V20.064H178.41C177.514 20.064 176.714 20.2027 176.01 20.48C175.306 20.7573 174.751 21.2373 174.346 21.92C173.962 22.6027 173.77 23.552 173.77 24.768V32H169.674ZM184.345 39.04L188.025 30.944H187.065L180.889 16.128H185.337L189.785 27.296L194.425 16.128H198.777L188.697 39.04H184.345Z" fill="#2F2056"/>
</svg>
