<svg width="256" height="256" viewBox="0 0 256 256" fill="none" xmlns="http://www.w3.org/2000/svg">
<rect width="256" height="256" fill="white"/>
<path d="M128.823 70.7386C104.942 70.491 100.782 50.7022 77.0397 48.1157C14.0421 41.2527 49.4067 236.736 103.582 203.86C118.364 194.89 111.541 179.289 128.823 179.802C145.629 180.301 138.965 194.567 152.976 203.86C205.906 238.965 242.954 42.3609 179.703 48.1157C155.436 50.3236 153.189 70.9914 128.823 70.7386Z" fill="#9A8AFF"/>
<path d="M108.026 97.9195L105.607 97.1421C97.139 94.42 90.502 87.7829 87.7802 79.3145L87.0024 76.8947C86.8127 76.3087 86.2692 75.9124 85.6535 75.9124C85.0378 75.9124 84.4942 76.3087 84.306 76.8947L83.5282 79.3145C80.8064 87.7829 74.1694 94.42 65.7011 97.1421L63.2826 97.9195C62.6951 98.1078 62.2988 98.6513 62.2988 99.267C62.2988 99.8827 62.6951 100.426 63.2811 100.615L65.6997 101.392C74.168 104.114 80.805 110.751 83.5268 119.219L84.3046 121.639C84.4942 122.225 85.0378 122.622 85.6535 122.622C86.2692 122.622 86.8127 122.225 87.001 121.639L87.7788 119.219C90.5006 110.751 97.1376 104.114 105.606 101.392L108.024 100.615C108.612 100.426 109.008 99.8827 109.008 99.267C109.008 98.6513 108.612 98.1078 108.026 97.9195Z" fill="white"/>
</svg>
