<svg width="100" height="100" viewBox="0 0 100 100" fill="none" xmlns="http://www.w3.org/2000/svg">
<circle opacity="0.6" cx="50" cy="50" r="50" fill="#9A8AFF"/>
<g filter="url(#filter0_dii_5412_30186)">
<path d="M76.3113 39.6678C75.5924 32.2034 69.4353 26.1429 61.7944 25.3816C57.8655 24.9899 54.1892 25.9666 51.1929 27.8742C48.1966 25.9666 44.5186 24.9899 40.5914 25.3816C32.9506 26.1429 26.7935 32.2034 26.0745 39.6678C25.554 45.0636 27.7991 49.9675 31.5856 53.1944C32.7454 54.183 33.4118 55.5939 33.4101 57.0962C33.4101 57.1047 33.4101 57.1132 33.4101 57.1217C33.4101 65.7358 35.974 73.4207 39.9877 78.4587C41.7072 80.6173 45.2665 79.3845 45.2665 76.6511C45.2665 72.2202 45.2665 66.5192 45.2665 63.1041C45.2665 60.023 47.6489 57.3336 50.7995 57.1335C54.252 56.9148 57.1211 59.5838 57.1211 62.9074V76.646C57.1211 79.3794 60.6804 80.6156 62.3998 78.4587C66.4135 73.4207 68.9774 65.7358 68.9774 57.1217C68.9774 57.1132 68.9774 57.1047 68.9774 57.0962C68.9757 55.5939 69.6422 54.183 70.802 53.1944C74.5851 49.9675 76.8302 45.0636 76.3113 39.6678Z" fill="white"/>
</g>
<g filter="url(#filter1_di_5412_30186)">
<path d="M39.0981 26.5488L38.4551 26.4448C35.9095 26.0332 33.7184 24.4197 32.5697 22.111L32.2793 21.5275C32.2009 21.3706 32.0309 21.2822 31.8575 21.3085C31.6841 21.3349 31.548 21.4697 31.5201 21.6428L31.4161 22.2862C31.0045 24.8318 29.3911 27.023 27.0824 28.1717L26.4992 28.4619C26.3419 28.54 26.2535 28.71 26.2798 28.8834C26.3062 29.0568 26.441 29.1929 26.614 29.2208L27.2571 29.3248C29.8027 29.7364 31.9938 31.3499 33.1425 33.6586L33.4328 34.2421C33.5113 34.399 33.6813 34.4874 33.8547 34.4611C34.028 34.4347 34.1641 34.2999 34.1921 34.1269L34.2961 33.4834C34.7077 30.9378 36.3211 28.7466 38.6298 27.5979L39.213 27.3077C39.3703 27.2296 39.4587 27.0596 39.4324 26.8862C39.406 26.7129 39.2712 26.5768 39.0981 26.5488Z" fill="#9A8AFF"/>
</g>
<g filter="url(#filter2_di_5412_30186)">
<path d="M30.3334 34.0934V34.0934C28.8773 33.8418 27.6237 32.9192 26.9512 31.6033V31.6033C26.8727 31.4488 26.7038 31.3619 26.532 31.388C26.3602 31.4141 26.2246 31.5468 26.1955 31.718V31.718C25.9437 33.1741 25.0208 34.427 23.7049 35.0995V35.0995C23.5505 35.1783 23.4636 35.3473 23.4897 35.5191C23.5157 35.6908 23.6485 35.8265 23.8197 35.8559V35.8559C25.2758 36.1076 26.5292 37.0303 27.2015 38.3461V38.3461C27.2803 38.5001 27.4489 38.5871 27.6207 38.561C27.7924 38.5349 27.9281 38.4022 27.9571 38.231V38.231C28.2089 36.7749 29.1322 35.5219 30.4482 34.8495V34.8495C30.603 34.7706 30.6895 34.6017 30.6635 34.4303C30.6374 34.2589 30.5047 34.1229 30.3334 34.0934Z" fill="#9A8AFF"/>
</g>
<defs>
<filter id="filter0_dii_5412_30186" x="20.7346" y="22.2961" width="60.9175" height="67.7947" filterUnits="userSpaceOnUse" color-interpolation-filters="sRGB">
<feFlood flood-opacity="0" result="BackgroundImageFix"/>
<feColorMatrix in="SourceAlpha" type="matrix" values="0 0 0 0 0 0 0 0 0 0 0 0 0 0 0 0 0 0 127 0" result="hardAlpha"/>
<feOffset dy="5.26539"/>
<feGaussianBlur stdDeviation="2.6327"/>
<feComposite in2="hardAlpha" operator="out"/>
<feColorMatrix type="matrix" values="0 0 0 0 0.0496552 0 0 0 0 0 0 0 0 0 0.36 0 0 0 0.04 0"/>
<feBlend mode="normal" in2="BackgroundImageFix" result="effect1_dropShadow_5412_30186"/>
<feBlend mode="normal" in="SourceGraphic" in2="effect1_dropShadow_5412_30186" result="shape"/>
<feColorMatrix in="SourceAlpha" type="matrix" values="0 0 0 0 0 0 0 0 0 0 0 0 0 0 0 0 0 0 127 0" result="hardAlpha"/>
<feOffset dy="4"/>
<feGaussianBlur stdDeviation="3"/>
<feComposite in2="hardAlpha" operator="arithmetic" k2="-1" k3="1"/>
<feColorMatrix type="matrix" values="0 0 0 0 0.137328 0 0 0 0 0.0525 0 0 0 0 0.6675 0 0 0 0.06 0"/>
<feBlend mode="normal" in2="shape" result="effect2_innerShadow_5412_30186"/>
<feColorMatrix in="SourceAlpha" type="matrix" values="0 0 0 0 0 0 0 0 0 0 0 0 0 0 0 0 0 0 127 0" result="hardAlpha"/>
<feOffset dy="-3"/>
<feGaussianBlur stdDeviation="2"/>
<feComposite in2="hardAlpha" operator="arithmetic" k2="-1" k3="1"/>
<feColorMatrix type="matrix" values="0 0 0 0 0.137255 0 0 0 0 0.0509804 0 0 0 0 0.666667 0 0 0 0.16 0"/>
<feBlend mode="normal" in2="effect2_innerShadow_5412_30186" result="effect3_innerShadow_5412_30186"/>
</filter>
<filter id="filter1_di_5412_30186" x="22.0145" y="20.304" width="21.6819" height="22.6795" filterUnits="userSpaceOnUse" color-interpolation-filters="sRGB">
<feFlood flood-opacity="0" result="BackgroundImageFix"/>
<feColorMatrix in="SourceAlpha" type="matrix" values="0 0 0 0 0 0 0 0 0 0 0 0 0 0 0 0 0 0 127 0" result="hardAlpha"/>
<feOffset dy="4.25893"/>
<feGaussianBlur stdDeviation="2.12947"/>
<feComposite in2="hardAlpha" operator="out"/>
<feColorMatrix type="matrix" values="0 0 0 0 0.929412 0 0 0 0 0.890196 0 0 0 0 1 0 0 0 0.25 0"/>
<feBlend mode="normal" in2="BackgroundImageFix" result="effect1_dropShadow_5412_30186"/>
<feBlend mode="normal" in="SourceGraphic" in2="effect1_dropShadow_5412_30186" result="shape"/>
<feColorMatrix in="SourceAlpha" type="matrix" values="0 0 0 0 0 0 0 0 0 0 0 0 0 0 0 0 0 0 127 0" result="hardAlpha"/>
<feOffset dy="-1"/>
<feGaussianBlur stdDeviation="2"/>
<feComposite in2="hardAlpha" operator="arithmetic" k2="-1" k3="1"/>
<feColorMatrix type="matrix" values="0 0 0 0 0.499316 0 0 0 0 0.42 0 0 0 0 1 0 0 0 1 0"/>
<feBlend mode="normal" in2="shape" result="effect2_innerShadow_5412_30186"/>
</filter>
<filter id="filter2_di_5412_30186" x="19.2254" y="30.3835" width="15.7015" height="16.7" filterUnits="userSpaceOnUse" color-interpolation-filters="sRGB">
<feFlood flood-opacity="0" result="BackgroundImageFix"/>
<feColorMatrix in="SourceAlpha" type="matrix" values="0 0 0 0 0 0 0 0 0 0 0 0 0 0 0 0 0 0 127 0" result="hardAlpha"/>
<feOffset dy="4.25893"/>
<feGaussianBlur stdDeviation="2.12947"/>
<feComposite in2="hardAlpha" operator="out"/>
<feColorMatrix type="matrix" values="0 0 0 0 0.929412 0 0 0 0 0.890196 0 0 0 0 1 0 0 0 0.25 0"/>
<feBlend mode="normal" in2="BackgroundImageFix" result="effect1_dropShadow_5412_30186"/>
<feBlend mode="normal" in="SourceGraphic" in2="effect1_dropShadow_5412_30186" result="shape"/>
<feColorMatrix in="SourceAlpha" type="matrix" values="0 0 0 0 0 0 0 0 0 0 0 0 0 0 0 0 0 0 127 0" result="hardAlpha"/>
<feOffset dy="-1"/>
<feGaussianBlur stdDeviation="2"/>
<feComposite in2="hardAlpha" operator="arithmetic" k2="-1" k3="1"/>
<feColorMatrix type="matrix" values="0 0 0 0 0.499316 0 0 0 0 0.42 0 0 0 0 1 0 0 0 1 0"/>
<feBlend mode="normal" in2="shape" result="effect2_innerShadow_5412_30186"/>
</filter>
</defs>
</svg>
