<svg width="124" height="124" viewBox="0 0 124 124" fill="none" xmlns="http://www.w3.org/2000/svg">
<circle opacity="0.5" cx="62" cy="62" r="60" fill="#B4A8FF"/>
<g filter="url(#filter0_dii_5414_32142)">
<path d="M100.885 42.2496C99.7723 30.6941 90.2407 21.3121 78.4122 20.1335C72.3299 19.5271 66.6388 21.0391 62.0003 23.9923C57.3618 21.0391 51.6681 19.5271 45.5885 20.1335C33.76 21.3121 24.2284 30.6941 23.1154 42.2496C22.3095 50.6025 25.7851 58.1941 31.6468 63.1896C33.4424 64.72 34.474 66.9041 34.4714 69.2299C34.4714 69.243 34.4714 69.2561 34.4714 69.2692C34.4714 82.6045 38.4404 94.5013 44.6539 102.3C47.3157 105.642 52.8258 103.734 52.8258 99.502C52.8258 92.6428 52.8258 83.8173 52.8258 78.5304C52.8258 73.7607 56.5139 69.5974 61.3913 69.2876C66.7359 68.949 71.1775 73.0808 71.1775 78.2259V99.4941C71.1775 103.726 76.6875 105.639 79.3493 102.3C85.5628 94.5013 89.5319 82.6045 89.5319 69.2692C89.5319 69.2561 89.5319 69.243 89.5319 69.2299C89.5293 66.9041 90.5609 64.72 92.3565 63.1896C98.213 58.1941 101.689 50.6025 100.885 42.2496Z" fill="white"/>
</g>
<g filter="url(#filter1_di_5414_32142)">
<path d="M75.5745 27.8995L69.8489 20.6759C72.3122 20.1354 74.8898 19.8964 77.1036 20.0419L87.5438 30.6894C88.1642 31.3222 87.716 32.3895 86.8298 32.3895H78.9004L81.4246 43.0602C81.6755 44.1208 80.2896 44.7606 79.6451 43.8817L69.0918 29.4909C68.6074 28.8304 69.0791 27.8995 69.8982 27.8995H75.5745Z" fill="#9A8AFF"/>
</g>
<defs>
<filter id="filter0_dii_5414_32142" x="17.7346" y="17.0012" width="88.5308" height="97.5349" filterUnits="userSpaceOnUse" color-interpolation-filters="sRGB">
<feFlood flood-opacity="0" result="BackgroundImageFix"/>
<feColorMatrix in="SourceAlpha" type="matrix" values="0 0 0 0 0 0 0 0 0 0 0 0 0 0 0 0 0 0 127 0" result="hardAlpha"/>
<feOffset dy="5.26539"/>
<feGaussianBlur stdDeviation="2.6327"/>
<feComposite in2="hardAlpha" operator="out"/>
<feColorMatrix type="matrix" values="0 0 0 0 0.0496552 0 0 0 0 0 0 0 0 0 0.36 0 0 0 0.04 0"/>
<feBlend mode="normal" in2="BackgroundImageFix" result="effect1_dropShadow_5414_32142"/>
<feBlend mode="normal" in="SourceGraphic" in2="effect1_dropShadow_5414_32142" result="shape"/>
<feColorMatrix in="SourceAlpha" type="matrix" values="0 0 0 0 0 0 0 0 0 0 0 0 0 0 0 0 0 0 127 0" result="hardAlpha"/>
<feOffset dy="4"/>
<feGaussianBlur stdDeviation="3"/>
<feComposite in2="hardAlpha" operator="arithmetic" k2="-1" k3="1"/>
<feColorMatrix type="matrix" values="0 0 0 0 0.137328 0 0 0 0 0.0525 0 0 0 0 0.6675 0 0 0 0.06 0"/>
<feBlend mode="normal" in2="shape" result="effect2_innerShadow_5414_32142"/>
<feColorMatrix in="SourceAlpha" type="matrix" values="0 0 0 0 0 0 0 0 0 0 0 0 0 0 0 0 0 0 127 0" result="hardAlpha"/>
<feOffset dy="-3"/>
<feGaussianBlur stdDeviation="2"/>
<feComposite in2="hardAlpha" operator="arithmetic" k2="-1" k3="1"/>
<feColorMatrix type="matrix" values="0 0 0 0 0.137255 0 0 0 0 0.0509804 0 0 0 0 0.666667 0 0 0 0.16 0"/>
<feBlend mode="normal" in2="effect2_innerShadow_5414_32142" result="effect3_innerShadow_5414_32142"/>
</filter>
<filter id="filter1_di_5414_32142" x="63.9378" y="18.8357" width="28.8529" height="35.3768" filterUnits="userSpaceOnUse" color-interpolation-filters="sRGB">
<feFlood flood-opacity="0" result="BackgroundImageFix"/>
<feColorMatrix in="SourceAlpha" type="matrix" values="0 0 0 0 0 0 0 0 0 0 0 0 0 0 0 0 0 0 127 0" result="hardAlpha"/>
<feOffset dy="4.95867"/>
<feGaussianBlur stdDeviation="2.47933"/>
<feComposite in2="hardAlpha" operator="out"/>
<feColorMatrix type="matrix" values="0 0 0 0 0.929412 0 0 0 0 0.890196 0 0 0 0 1 0 0 0 0.25 0"/>
<feBlend mode="normal" in2="BackgroundImageFix" result="effect1_dropShadow_5414_32142"/>
<feBlend mode="normal" in="SourceGraphic" in2="effect1_dropShadow_5414_32142" result="shape"/>
<feColorMatrix in="SourceAlpha" type="matrix" values="0 0 0 0 0 0 0 0 0 0 0 0 0 0 0 0 0 0 127 0" result="hardAlpha"/>
<feOffset dy="-1.1643"/>
<feGaussianBlur stdDeviation="2.3286"/>
<feComposite in2="hardAlpha" operator="arithmetic" k2="-1" k3="1"/>
<feColorMatrix type="matrix" values="0 0 0 0 0.499316 0 0 0 0 0.42 0 0 0 0 1 0 0 0 1 0"/>
<feBlend mode="normal" in2="shape" result="effect2_innerShadow_5414_32142"/>
</filter>
</defs>
</svg>
