<svg width="124" height="124" viewBox="0 0 124 124" fill="none" xmlns="http://www.w3.org/2000/svg">
<circle opacity="0.5" cx="62" cy="62" r="60" fill="#B4A8FF"/>
<g filter="url(#filter0_dii_5414_32117)">
<path d="M70.4493 94.4501L62.3295 101L54.208 94.4501V63.8789H70.4493V94.4501Z" fill="white"/>
<g filter="url(#filter1_di_5414_32117)">
<path fill-rule="evenodd" clip-rule="evenodd" d="M72.7637 71.0112C72.8307 71.6809 72.342 72.2782 71.6722 72.3452L53.3382 74.1789C52.6685 74.2459 52.0712 73.7573 52.0042 73.0875C51.9372 72.4177 52.4259 71.8204 53.0956 71.7534L71.4296 69.9197C72.0994 69.8527 72.6967 70.3414 72.7637 71.0112Z" fill="#9A8AFF"/>
<path fill-rule="evenodd" clip-rule="evenodd" d="M72.7637 78.3959C72.8307 79.0657 72.342 79.663 71.6722 79.73L53.3382 81.5637C52.6685 81.6307 52.0712 81.142 52.0042 80.4723C51.9372 79.8025 52.4259 79.2052 53.0956 79.1382L71.4296 77.3045C72.0994 77.2375 72.6967 77.7262 72.7637 78.3959Z" fill="#9A8AFF"/>
<path fill-rule="evenodd" clip-rule="evenodd" d="M72.7637 85.7809C72.8307 86.4507 72.342 87.048 71.6722 87.115L53.3382 88.9487C52.6685 89.0157 52.0712 88.527 52.0042 87.8573C51.9372 87.1875 52.4259 86.5902 53.0956 86.5232L71.4296 84.6895C72.0994 84.6225 72.6967 85.1112 72.7637 85.7809Z" fill="#9A8AFF"/>
</g>
</g>
<g filter="url(#filter2_dii_5414_32117)">
<path d="M84.5955 35.9039C83.9578 29.2017 78.499 23.7607 71.7275 23.0768C68.2459 22.7251 64.9863 23.6026 62.3306 25.315C59.6732 23.6008 56.4153 22.7251 52.9337 23.0768C46.1604 23.7607 40.7034 29.2034 40.0657 35.9039C39.6057 40.7498 41.5952 45.1516 44.9507 48.0488C45.9792 48.937 46.569 50.2035 46.569 51.5518C46.569 51.5589 46.569 51.5678 46.569 51.5749C46.569 53.623 46.7377 55.6072 47.0397 57.5115H54.2126H57.0779H67.5869H70.4521H77.6251C77.9253 55.609 78.0958 53.6248 78.0958 51.5749C78.0958 51.5678 78.0958 51.5589 78.0958 51.5518C78.094 50.2018 78.6855 48.9352 79.714 48.0488C83.066 45.1516 85.0573 40.7498 84.5955 35.9039Z" fill="white"/>
</g>
<defs>
<filter id="filter0_dii_5414_32117" x="46.7327" y="60.8789" width="31.3023" height="50.6519" filterUnits="userSpaceOnUse" color-interpolation-filters="sRGB">
<feFlood flood-opacity="0" result="BackgroundImageFix"/>
<feColorMatrix in="SourceAlpha" type="matrix" values="0 0 0 0 0 0 0 0 0 0 0 0 0 0 0 0 0 0 127 0" result="hardAlpha"/>
<feOffset dy="5.26539"/>
<feGaussianBlur stdDeviation="2.6327"/>
<feComposite in2="hardAlpha" operator="out"/>
<feColorMatrix type="matrix" values="0 0 0 0 0.0496552 0 0 0 0 0 0 0 0 0 0.36 0 0 0 0.04 0"/>
<feBlend mode="normal" in2="BackgroundImageFix" result="effect1_dropShadow_5414_32117"/>
<feBlend mode="normal" in="SourceGraphic" in2="effect1_dropShadow_5414_32117" result="shape"/>
<feColorMatrix in="SourceAlpha" type="matrix" values="0 0 0 0 0 0 0 0 0 0 0 0 0 0 0 0 0 0 127 0" result="hardAlpha"/>
<feOffset dy="4"/>
<feGaussianBlur stdDeviation="3"/>
<feComposite in2="hardAlpha" operator="arithmetic" k2="-1" k3="1"/>
<feColorMatrix type="matrix" values="0 0 0 0 0.137328 0 0 0 0 0.0525 0 0 0 0 0.6675 0 0 0 0.06 0"/>
<feBlend mode="normal" in2="shape" result="effect2_innerShadow_5414_32117"/>
<feColorMatrix in="SourceAlpha" type="matrix" values="0 0 0 0 0 0 0 0 0 0 0 0 0 0 0 0 0 0 127 0" result="hardAlpha"/>
<feOffset dy="-3"/>
<feGaussianBlur stdDeviation="2"/>
<feComposite in2="hardAlpha" operator="arithmetic" k2="-1" k3="1"/>
<feColorMatrix type="matrix" values="0 0 0 0 0.137255 0 0 0 0 0.0509804 0 0 0 0 0.666667 0 0 0 0.16 0"/>
<feBlend mode="normal" in2="effect2_innerShadow_5414_32117" result="effect3_innerShadow_5414_32117"/>
</filter>
<filter id="filter1_di_5414_32117" x="47.7391" y="68.9136" width="29.2893" height="28.5591" filterUnits="userSpaceOnUse" color-interpolation-filters="sRGB">
<feFlood flood-opacity="0" result="BackgroundImageFix"/>
<feColorMatrix in="SourceAlpha" type="matrix" values="0 0 0 0 0 0 0 0 0 0 0 0 0 0 0 0 0 0 127 0" result="hardAlpha"/>
<feOffset dy="4.25893"/>
<feGaussianBlur stdDeviation="2.12947"/>
<feComposite in2="hardAlpha" operator="out"/>
<feColorMatrix type="matrix" values="0 0 0 0 0.929412 0 0 0 0 0.890196 0 0 0 0 1 0 0 0 0.25 0"/>
<feBlend mode="normal" in2="BackgroundImageFix" result="effect1_dropShadow_5414_32117"/>
<feBlend mode="normal" in="SourceGraphic" in2="effect1_dropShadow_5414_32117" result="shape"/>
<feColorMatrix in="SourceAlpha" type="matrix" values="0 0 0 0 0 0 0 0 0 0 0 0 0 0 0 0 0 0 127 0" result="hardAlpha"/>
<feOffset dy="-1"/>
<feGaussianBlur stdDeviation="2"/>
<feComposite in2="hardAlpha" operator="arithmetic" k2="-1" k3="1"/>
<feColorMatrix type="matrix" values="0 0 0 0 0.499316 0 0 0 0 0.42 0 0 0 0 1 0 0 0 1 0"/>
<feBlend mode="normal" in2="shape" result="effect2_innerShadow_5414_32117"/>
</filter>
<filter id="filter2_dii_5414_32117" x="34.7346" y="20" width="55.1929" height="48.0423" filterUnits="userSpaceOnUse" color-interpolation-filters="sRGB">
<feFlood flood-opacity="0" result="BackgroundImageFix"/>
<feColorMatrix in="SourceAlpha" type="matrix" values="0 0 0 0 0 0 0 0 0 0 0 0 0 0 0 0 0 0 127 0" result="hardAlpha"/>
<feOffset dy="5.26539"/>
<feGaussianBlur stdDeviation="2.6327"/>
<feComposite in2="hardAlpha" operator="out"/>
<feColorMatrix type="matrix" values="0 0 0 0 0.0496552 0 0 0 0 0 0 0 0 0 0.36 0 0 0 0.04 0"/>
<feBlend mode="normal" in2="BackgroundImageFix" result="effect1_dropShadow_5414_32117"/>
<feBlend mode="normal" in="SourceGraphic" in2="effect1_dropShadow_5414_32117" result="shape"/>
<feColorMatrix in="SourceAlpha" type="matrix" values="0 0 0 0 0 0 0 0 0 0 0 0 0 0 0 0 0 0 127 0" result="hardAlpha"/>
<feOffset dy="4"/>
<feGaussianBlur stdDeviation="3"/>
<feComposite in2="hardAlpha" operator="arithmetic" k2="-1" k3="1"/>
<feColorMatrix type="matrix" values="0 0 0 0 0.137328 0 0 0 0 0.0525 0 0 0 0 0.6675 0 0 0 0.06 0"/>
<feBlend mode="normal" in2="shape" result="effect2_innerShadow_5414_32117"/>
<feColorMatrix in="SourceAlpha" type="matrix" values="0 0 0 0 0 0 0 0 0 0 0 0 0 0 0 0 0 0 127 0" result="hardAlpha"/>
<feOffset dy="-3"/>
<feGaussianBlur stdDeviation="2"/>
<feComposite in2="hardAlpha" operator="arithmetic" k2="-1" k3="1"/>
<feColorMatrix type="matrix" values="0 0 0 0 0.137255 0 0 0 0 0.0509804 0 0 0 0 0.666667 0 0 0 0.16 0"/>
<feBlend mode="normal" in2="effect2_innerShadow_5414_32117" result="effect3_innerShadow_5414_32117"/>
</filter>
</defs>
</svg>
