<svg width="191" height="186" viewBox="0 0 191 186" fill="none" xmlns="http://www.w3.org/2000/svg">
<path fill-rule="evenodd" clip-rule="evenodd" d="M123.723 171.281C123.723 179.41 117.133 186 109.004 186L14.7197 186C6.59085 186 0.00114383 179.41 0.00114312 171.282L0.00113491 77.3667C0.0011342 69.2379 6.59084 62.6482 14.7196 62.6482L109.004 62.6482V62.6482C110.569 62.6482 112.144 62.2006 113.252 61.096L117.45 56.9102C120.524 53.8455 122.252 49.6834 122.252 45.3429L122.252 8.0602C122.252 3.60871 125.86 6.66428e-05 130.312 6.62536e-05L181.944 6.17398e-05C186.395 6.13506e-05 190.004 3.6087 190.004 8.0602L190.004 59.4897C190.004 63.9412 186.395 67.5499 181.944 67.5499L136.085 67.5499C132.968 67.5499 129.978 68.7859 127.77 70.987L125.114 73.635C124.138 74.6083 123.723 75.9881 123.723 77.3667V77.3667L123.723 171.281Z" fill="#FAFAFA"/>
</svg>
