<svg width="192" height="196" viewBox="0 0 192 196" fill="none" xmlns="http://www.w3.org/2000/svg">
<path fill-rule="evenodd" clip-rule="evenodd" d="M15.207 127.628C6.80843 127.628 -2.95011e-07 120.819 -6.62126e-07 112.421L-4.91148e-06 15.2069C-5.27859e-06 6.80833 6.80841 -9.18503e-05 15.207 -9.22175e-05L112.123 -9.64538e-05C120.522 -9.68209e-05 127.33 6.80833 127.33 15.2069L127.33 112.421V112.421C127.33 114.045 127.794 115.68 128.941 116.829L133.259 121.158C136.421 124.327 140.714 126.108 145.191 126.108L183.672 126.108C188.272 126.108 192 129.837 192 134.436L192 187.672C192 192.271 188.272 196 183.672 196L130.599 196C126 196 122.272 192.271 122.272 187.672L122.272 140.376C122.272 137.16 120.996 134.076 118.725 131.8L116.005 129.073C114.992 128.058 113.557 127.628 112.123 127.628V127.628L15.207 127.628Z" fill="#FFFDF9"/>
</svg>
