<svg width="186" height="190" viewBox="0 0 186 190" fill="none" xmlns="http://www.w3.org/2000/svg">
<path fill-rule="evenodd" clip-rule="evenodd" d="M171.281 66.2791C179.41 66.2791 186 72.8688 186 80.9976L186 175.281C186 183.41 179.41 190 171.281 190L77.3667 190C69.2379 190 62.6482 183.41 62.6482 175.281L62.6482 80.9976V80.9976C62.6482 79.4358 62.2011 77.8634 61.0984 76.7574L56.909 72.5555C53.843 69.4803 49.6791 67.7519 45.3366 67.7519L8.06007 67.7519C3.60858 67.7519 -6.38389e-05 64.1433 -6.36444e-05 59.6918L-6.13875e-05 8.06013C-6.11929e-05 3.60864 3.60858 -2.78305e-06 8.06007 -2.58847e-06L59.4896 -3.40413e-07C63.9411 -1.45832e-07 67.5497 3.60865 67.5497 8.06014L67.5497 53.9251C67.5497 57.0402 68.7848 60.0282 70.9842 62.2342L73.6273 64.8852C74.6026 65.8634 75.9853 66.2791 77.3667 66.2791V66.2791L171.281 66.2791Z" fill="#FFFDF9"/>
</svg>
