<svg width="174" height="170" viewBox="0 0 174 170" fill="none" xmlns="http://www.w3.org/2000/svg">
<path fill-rule="evenodd" clip-rule="evenodd" d="M60.6992 13.5271C60.6992 6.05629 66.7555 0 74.2263 0H160.474C167.945 0 174.001 6.0563 174.001 13.5271V99.2138C174.001 106.685 167.945 112.741 160.474 112.741H74.2263V112.741C72.7694 112.741 71.3015 113.155 70.2687 114.182L66.4472 117.985C63.63 120.788 62.0462 124.599 62.0462 128.573V162.592C62.0462 166.684 58.7296 170 54.6385 170H7.40772C3.31655 170 0 166.684 0 162.592V115.669C0 111.578 3.31655 108.261 7.40771 108.261H49.401C52.2434 108.261 54.9701 107.136 56.9849 105.131L59.3864 102.741C60.3099 101.822 60.6992 100.517 60.6992 99.2138V99.2138V13.5271Z" fill="#FFFDF9"/>
</svg>
