<svg width="132" height="20" viewBox="0 0 132 20" fill="none" xmlns="http://www.w3.org/2000/svg">
<g clip-path="url(#clip0_5432_1291)">
<path d="M9.40532 17.1522C9.78057 16.9257 10.2504 16.9257 10.6257 17.1522L14.4853 19.4817C15.3795 20.0215 16.4827 19.2197 16.2453 18.2025L15.221 13.8125C15.1214 13.3856 15.2664 12.9387 15.5977 12.6517L19.0093 9.69629C19.7988 9.01236 19.3768 7.71551 18.336 7.62724L13.8468 7.24651C13.4104 7.20949 13.0303 6.93398 12.8594 6.53074L11.1027 2.38601C10.6958 1.42602 9.33522 1.42602 8.92832 2.38601L7.17156 6.53074C7.00065 6.93398 6.62058 7.20949 6.18418 7.24651L1.69501 7.62724C0.654203 7.71551 0.232155 9.01237 1.02166 9.69629L4.43323 12.6517C4.76454 12.9387 4.9096 13.3856 4.81 13.8125L3.78566 18.2025C3.54831 19.2197 4.65147 20.0215 5.54573 19.4817L9.40532 17.1522Z" fill="#9A8AFF"/>
</g>
<g clip-path="url(#clip1_5432_1291)">
<path d="M37.4483 17.1522C37.8235 16.9257 38.2934 16.9257 38.6686 17.1522L42.5282 19.4817C43.4225 20.0215 44.5256 19.2197 44.2883 18.2025L43.264 13.8125C43.1643 13.3856 43.3094 12.9387 43.6407 12.6517L47.0523 9.69629C47.8418 9.01236 47.4197 7.71551 46.3789 7.62724L41.8898 7.24651C41.4534 7.20949 41.0733 6.93398 40.9024 6.53074L39.1456 2.38601C38.7387 1.42602 37.3782 1.42602 36.9713 2.38601L35.2145 6.53074C35.0436 6.93398 34.6636 7.20949 34.2271 7.24651L29.738 7.62724C28.6972 7.71551 28.2751 9.01237 29.0646 9.69629L32.4762 12.6517C32.8075 12.9387 32.9526 13.3856 32.853 13.8125L31.8286 18.2025C31.5913 19.2197 32.6944 20.0215 33.5887 19.4817L37.4483 17.1522Z" fill="#9A8AFF"/>
</g>
<g clip-path="url(#clip2_5432_1291)">
<path d="M65.4932 17.1522C65.8685 16.9257 66.3383 16.9257 66.7135 17.1522L70.5731 19.4817C71.4674 20.0215 72.5706 19.2197 72.3332 18.2025L71.3089 13.8125C71.2093 13.3856 71.3543 12.9387 71.6856 12.6517L75.0972 9.69629C75.8867 9.01236 75.4647 7.71551 74.4239 7.62724L69.9347 7.24651C69.4983 7.20949 69.1182 6.93398 68.9473 6.53074L67.1905 2.38601C66.7837 1.42602 65.4231 1.42602 65.0162 2.38601L63.2595 6.53074C63.0885 6.93398 62.7085 7.20949 62.2721 7.24651L57.7829 7.62724C56.7421 7.71551 56.32 9.01237 57.1095 9.69629L60.5211 12.6517C60.8524 12.9387 60.9975 13.3856 60.8979 13.8125L59.8735 18.2025C59.6362 19.2197 60.7394 20.0215 61.6336 19.4817L65.4932 17.1522Z" fill="#9A8AFF"/>
</g>
<g clip-path="url(#clip3_5432_1291)">
<path d="M93.5362 17.1522C93.9114 16.9257 94.3813 16.9257 94.7565 17.1522L98.6161 19.4817C99.5104 20.0215 100.614 19.2197 100.376 18.2025L99.3518 13.8125C99.2522 13.3856 99.3973 12.9387 99.7286 12.6517L103.14 9.69629C103.93 9.01236 103.508 7.71551 102.467 7.62724L97.9777 7.24651C97.5413 7.20949 97.1612 6.93398 96.9903 6.53074L95.2335 2.38601C94.8266 1.42602 93.4661 1.42602 93.0592 2.38601L91.3024 6.53074C91.1315 6.93398 90.7514 7.20949 90.315 7.24651L85.8259 7.62724C84.7851 7.71551 84.363 9.01237 85.1525 9.69629L88.5641 12.6517C88.8954 12.9387 89.0405 13.3856 88.9409 13.8125L87.9165 18.2025C87.6792 19.2197 88.7823 20.0215 89.6766 19.4817L93.5362 17.1522Z" fill="#9A8AFF"/>
</g>
<g clip-path="url(#clip4_5432_1291)">
<path d="M121.581 17.1522C121.956 16.9257 122.426 16.9257 122.801 17.1522L126.661 19.4817C127.555 20.0215 128.658 19.2197 128.421 18.2025L127.397 13.8125C127.297 13.3856 127.442 12.9387 127.774 12.6517L131.185 9.69629C131.975 9.01236 131.553 7.71551 130.512 7.62724L126.023 7.24651C125.586 7.20949 125.206 6.93398 125.035 6.53074L123.278 2.38601C122.872 1.42602 121.511 1.42602 121.104 2.38601L119.347 6.53074C119.176 6.93398 118.796 7.20949 118.36 7.24651L113.871 7.62724C112.83 7.71551 112.408 9.01237 113.197 9.69629L116.609 12.6517C116.94 12.9387 117.085 13.3856 116.986 13.8125L115.961 18.2025C115.724 19.2197 116.827 20.0215 117.722 19.4817L121.581 17.1522Z" fill="#9A8AFF"/>
</g>
<defs>
<clipPath id="clip0_5432_1291">
<rect width="19.1879" height="19.1879" fill="white" transform="translate(0.421875 0.780518)"/>
</clipPath>
<clipPath id="clip1_5432_1291">
<rect width="19.1879" height="19.1879" fill="white" transform="translate(28.4648 0.780518)"/>
</clipPath>
<clipPath id="clip2_5432_1291">
<rect width="19.1879" height="19.1879" fill="white" transform="translate(56.5098 0.780518)"/>
</clipPath>
<clipPath id="clip3_5432_1291">
<rect width="19.1879" height="19.1879" fill="white" transform="translate(84.5527 0.780518)"/>
</clipPath>
<clipPath id="clip4_5432_1291">
<rect width="19.1879" height="19.1879" fill="white" transform="translate(112.598 0.780518)"/>
</clipPath>
</defs>
</svg>
