<svg width="24" height="27" viewBox="0 0 24 27" fill="none" xmlns="http://www.w3.org/2000/svg">
<path d="M23 12.1111C23 18.2476 16.125 26 12 26C7.875 26 1 18.2476 1 12.1111C1 5.97461 5.92487 1 12 1C18.0751 1 23 5.97461 23 12.1111Z" stroke="#2F2056" stroke-width="1.5"/>
<path d="M15.6667 12.25C15.6667 14.3211 14.025 16 12 16C9.97496 16 8.33333 14.3211 8.33333 12.25C8.33333 10.1789 9.97496 8.5 12 8.5C14.025 8.5 15.6667 10.1789 15.6667 12.25Z" stroke="#2F2056" stroke-width="1.5"/>
<path d="M15.6668 12.2475C15.6668 14.3186 14.0252 15.9975 12.0002 15.9975C9.97512 15.9975 8.3335 14.3186 8.3335 12.2475C8.3335 10.1764 9.97512 8.4975 12.0002 8.4975C14.0252 8.4975 15.6668 10.1764 15.6668 12.2475Z" stroke="#9A8AFF" stroke-width="1.5"/>
</svg>
