<svg width="239" height="242" viewBox="0 0 239 242" fill="none" xmlns="http://www.w3.org/2000/svg">
<path fill-rule="evenodd" clip-rule="evenodd" d="M219.73 84.4183C230.132 84.4183 238.564 92.8509 238.564 103.253L238.564 223.165C238.564 233.567 230.132 242 219.73 242L99.5612 242C89.1591 242 80.7265 233.567 80.7265 223.165L80.7265 103.253V103.253C80.7265 101.216 80.1452 99.1626 78.7034 97.7232L73.3536 92.3821C69.4492 88.484 64.1575 86.2946 58.6403 86.2946L10.8787 86.2946C5.18226 86.2946 0.564415 81.6768 0.564416 75.9804L0.564418 10.3142C0.564419 4.61783 5.18226 -1.02015e-05 10.8787 -9.95246e-06L76.6852 -7.07597e-06C82.3816 -6.82697e-06 86.9995 4.61784 86.9995 10.3142L86.9995 68.6469C86.9995 72.6367 88.5861 76.4627 91.4096 79.2816L94.7732 82.6397C96.0241 83.8886 97.7937 84.4183 99.5613 84.4183V84.4183L219.73 84.4183Z" fill="#F5F0FF"/>
</svg>
