<svg width="171" height="32" viewBox="0 0 171 32" fill="none" xmlns="http://www.w3.org/2000/svg">
<path d="M16.7335 4.4697C12.0517 4.42115 11.2362 0.541714 6.58171 0.0346503C-5.76849 -1.31079 1.16447 37.0121 11.7852 30.5671C14.683 28.8086 13.3453 25.7502 16.7335 25.8508C20.0281 25.9485 18.7217 28.7453 21.4685 30.5671C31.8449 37.4492 39.108 -1.09354 26.7081 0.0346464C21.9507 0.467491 21.5103 4.51924 16.7335 4.4697Z" fill="#9A8AFF"/>
<path d="M12.6558 9.79822L12.1817 9.64581C10.5215 9.11217 9.22042 7.81102 8.68683 6.15086L8.53435 5.67646C8.49717 5.56158 8.39061 5.48389 8.26991 5.48389C8.1492 5.48389 8.04265 5.56158 8.00574 5.67646L7.85326 6.15086C7.31967 7.81102 6.01854 9.11217 4.3584 9.64581L3.88426 9.79822C3.7691 9.83513 3.69141 9.94168 3.69141 10.0624C3.69141 10.1831 3.7691 10.2896 3.88398 10.3266L4.35812 10.479C6.01827 11.0126 7.31939 12.3138 7.85299 13.9739L8.00546 14.4483C8.04265 14.5632 8.1492 14.6409 8.26991 14.6409C8.39061 14.6409 8.49717 14.5632 8.53407 14.4483L8.68655 13.9739C9.22015 12.3138 10.5213 11.0126 12.1814 10.479L12.6556 10.3266C12.7707 10.2896 12.8484 10.1831 12.8484 10.0624C12.8484 9.94168 12.7707 9.83513 12.6558 9.79822Z" fill="white"/>
<path d="M42.3353 23.6953V6.95361H48.0514C50.0126 6.95361 51.623 7.30438 52.8826 8.00594C54.1582 8.69155 55.0989 9.66417 55.7048 10.9238C56.3266 12.1675 56.6375 13.6343 56.6375 15.3245C56.6375 17.0146 56.3266 18.4894 55.7048 19.7491C55.0989 20.9927 54.1582 21.9653 52.8826 22.6669C51.623 23.3525 50.0126 23.6953 48.0514 23.6953H42.3353ZM45.3967 21.0645H47.9079C49.311 21.0645 50.4192 20.8412 51.2323 20.3948C52.0455 19.9324 52.6275 19.2787 52.9783 18.4336C53.329 17.5726 53.5044 16.5362 53.5044 15.3245C53.5044 14.1286 53.329 13.1002 52.9783 12.2392C52.6275 11.3782 52.0455 10.7165 51.2323 10.2541C50.4192 9.79172 49.311 9.56053 47.9079 9.56053H45.3967V21.0645ZM65.0308 23.9823C63.835 23.9823 62.7747 23.7272 61.8499 23.217C60.9251 22.7068 60.1996 21.9893 59.6735 21.0645C59.1473 20.1397 58.8842 19.0714 58.8842 17.8596C58.8842 16.6319 59.1393 15.5397 59.6495 14.583C60.1757 13.6264 60.8932 12.885 61.802 12.3588C62.7268 11.8167 63.811 11.5456 65.0547 11.5456C66.2187 11.5456 67.2471 11.8007 68.14 12.311C69.0329 12.8212 69.7264 13.5227 70.2207 14.4156C70.731 15.2926 70.9861 16.2732 70.9861 17.3574C70.9861 17.5328 70.9781 17.7161 70.9621 17.9075C70.9621 18.0988 70.9542 18.2981 70.9382 18.5054H61.9216C61.9854 19.4302 62.3043 20.1556 62.8783 20.6818C63.4682 21.208 64.1778 21.4711 65.0069 21.4711C65.6287 21.4711 66.1469 21.3355 66.5615 21.0645C66.992 20.7775 67.3109 20.4107 67.5181 19.9643H70.6273C70.4041 20.7137 70.0294 21.3993 69.5032 22.0211C68.993 22.627 68.3552 23.1054 67.5899 23.4561C66.8405 23.8069 65.9875 23.9823 65.0308 23.9823ZM65.0547 14.033C64.3053 14.033 63.6436 14.2482 63.0696 14.6787C62.4956 15.0933 62.1289 15.731 61.9695 16.592H67.8769C67.8291 15.8108 67.5421 15.1889 67.0159 14.7265C66.4897 14.2642 65.836 14.033 65.0547 14.033ZM73.5608 23.6953V11.8326H76.2634L76.5026 13.8416C76.8693 13.1401 77.3955 12.582 78.0811 12.1675C78.7827 11.7529 79.6038 11.5456 80.5445 11.5456C82.0114 11.5456 83.1515 12.008 83.9646 12.9328C84.7778 13.8576 85.1844 15.2128 85.1844 16.9986V23.6953H82.123V17.2856C82.123 16.2652 81.9158 15.4839 81.5012 14.9418C81.0866 14.3997 80.4409 14.1286 79.5639 14.1286C78.7029 14.1286 77.9934 14.4316 77.4354 15.0375C76.8932 15.6433 76.6222 16.4884 76.6222 17.5726V23.6953H73.5608ZM93.3973 23.6953C92.1537 23.6953 91.1571 23.3924 90.4077 22.7865C89.6584 22.1806 89.2837 21.1043 89.2837 19.5577V14.3917H87.2507V11.8326H89.2837L89.6424 8.65169H92.345V11.8326H95.5498V14.3917H92.345V19.5816C92.345 20.1556 92.4646 20.5542 92.7038 20.7775C92.9589 20.9848 93.3894 21.0884 93.9953 21.0884H95.4781V23.6953H93.3973ZM99.8285 9.99103C99.2704 9.99103 98.8081 9.82361 98.4413 9.48878C98.0906 9.15394 97.9152 8.73142 97.9152 8.22119C97.9152 7.71097 98.0906 7.29641 98.4413 6.97752C98.8081 6.64269 99.2704 6.47527 99.8285 6.47527C100.387 6.47527 100.841 6.64269 101.192 6.97752C101.558 7.29641 101.742 7.71097 101.742 8.22119C101.742 8.73142 101.558 9.15394 101.192 9.48878C100.841 9.82361 100.387 9.99103 99.8285 9.99103ZM98.2978 23.6953V11.8326H101.359V23.6953H98.2978ZM109.457 23.9823C108.405 23.9823 107.48 23.8149 106.683 23.4801C105.886 23.1293 105.248 22.6509 104.77 22.0451C104.291 21.4392 104.004 20.7376 103.909 19.9404H106.994C107.09 20.4028 107.345 20.8014 107.759 21.1362C108.19 21.4551 108.74 21.6146 109.41 21.6146C110.079 21.6146 110.566 21.479 110.869 21.208C111.187 20.9369 111.347 20.626 111.347 20.2752C111.347 19.765 111.124 19.4222 110.677 19.2468C110.231 19.0555 109.609 18.8721 108.812 18.6967C108.301 18.5851 107.783 18.4496 107.257 18.2901C106.731 18.1307 106.245 17.9314 105.798 17.6922C105.368 17.4371 105.017 17.1182 104.746 16.7355C104.475 16.3369 104.339 15.8506 104.339 15.2766C104.339 14.2243 104.754 13.3394 105.583 12.6219C106.428 11.9044 107.608 11.5456 109.123 11.5456C110.526 11.5456 111.642 11.8725 112.471 12.5262C113.316 13.1799 113.818 14.0808 113.978 15.2288H111.084C110.908 14.3518 110.247 13.9134 109.099 13.9134C108.525 13.9134 108.078 14.025 107.759 14.2482C107.456 14.4714 107.305 14.7505 107.305 15.0853C107.305 15.4361 107.536 15.7151 107.998 15.9224C108.461 16.1297 109.075 16.321 109.84 16.4964C110.669 16.6877 111.427 16.903 112.112 17.1421C112.814 17.3654 113.372 17.7082 113.786 18.1705C114.201 18.617 114.408 19.2627 114.408 20.1078C114.424 20.8413 114.233 21.5029 113.834 22.0929C113.436 22.6828 112.862 23.1452 112.112 23.4801C111.363 23.8149 110.478 23.9823 109.457 23.9823ZM122.032 23.6953C120.788 23.6953 119.792 23.3924 119.042 22.7865C118.293 22.1806 117.918 21.1043 117.918 19.5577V14.3917H115.885V11.8326H117.918L118.277 8.65169H120.98V11.8326H124.185V14.3917H120.98V19.5816C120.98 20.1556 121.099 20.5542 121.338 20.7775C121.594 20.9848 122.024 21.0884 122.63 21.0884H124.113V23.6953H122.032ZM126.813 23.6953V11.8326H129.539L129.826 14.0569C130.257 13.2915 130.839 12.6856 131.572 12.2392C132.322 11.7768 133.199 11.5456 134.203 11.5456V14.7744H133.342C132.673 14.7744 132.075 14.878 131.548 15.0853C131.022 15.2926 130.608 15.6513 130.305 16.1615C130.018 16.6718 129.874 17.3813 129.874 18.2901V23.6953H126.813ZM137.778 28.957L140.529 22.9061H139.811L135.195 11.8326H138.52L141.844 20.1796L145.312 11.8326H148.565L141.031 28.957H137.778ZM155.524 23.6953L160.761 15.2288L155.452 6.95361H158.968L162.723 12.7893L166.167 6.95361H169.611L164.373 15.3723L169.73 23.6953H166.214L162.412 17.7879L158.968 23.6953H155.524Z" fill="#2F2056"/>
</svg>
