<svg width="259" height="42" viewBox="0 0 259 42" fill="none" xmlns="http://www.w3.org/2000/svg">
<path d="M22.389 5.98035C16.1249 5.91539 15.0338 0.7248 8.80617 0.0463613C-7.7181 -1.7538 1.55803 49.5214 15.7682 40.898C19.6454 38.5452 17.8557 34.4532 22.389 34.5877C26.7971 34.7185 25.0492 38.4605 28.7244 40.898C42.6077 50.1061 52.3256 -1.46313 35.7348 0.046356C29.3695 0.625492 28.7802 6.04664 22.389 5.98035Z" fill="#9A8AFF"/>
<path d="M16.9336 13.1099L16.2993 12.906C14.078 12.192 12.3371 10.451 11.6232 8.22979L11.4192 7.59506C11.3694 7.44136 11.2269 7.3374 11.0654 7.3374C10.9039 7.3374 10.7613 7.44136 10.7119 7.59506L10.5079 8.22979C9.79398 10.451 8.05311 12.192 5.83187 12.906L5.19748 13.1099C5.04341 13.1593 4.93945 13.3018 4.93945 13.4633C4.93945 13.6248 5.04341 13.7674 5.19711 13.8168L5.8315 14.0207C8.05274 14.7347 9.79361 16.4756 10.5075 18.6969L10.7116 19.3316C10.7613 19.4853 10.9039 19.5892 11.0654 19.5892C11.2269 19.5892 11.3694 19.4853 11.4188 19.3316L11.6228 18.6969C12.3368 16.4756 14.0776 14.7347 16.2989 14.0207L16.9333 13.8168C17.0873 13.7674 17.1913 13.6248 17.1913 13.4633C17.1913 13.3018 17.0873 13.1593 16.9336 13.1099Z" fill="white"/>
<path d="M238.338 32.0001L245.346 20.6721L238.242 9.6001H242.946L247.97 17.4081L252.578 9.6001H257.186L250.178 20.8641L257.346 32.0001H252.642L247.554 24.0961L242.946 32.0001H238.338Z" fill="#2F2056"/>
<path d="M220.292 32.3841C218.692 32.3841 217.274 32.0428 216.036 31.3601C214.799 30.6775 213.828 29.7175 213.124 28.4801C212.42 27.2428 212.068 25.8135 212.068 24.1921C212.068 22.5495 212.41 21.0881 213.092 19.8081C213.796 18.5281 214.756 17.5361 215.972 16.8321C217.21 16.1068 218.66 15.7441 220.324 15.7441C221.882 15.7441 223.258 16.0855 224.452 16.7681C225.647 17.4508 226.575 18.3895 227.236 19.5841C227.919 20.7575 228.26 22.0695 228.26 23.5201C228.26 23.7548 228.25 24.0001 228.228 24.2561C228.228 24.5121 228.218 24.7788 228.196 25.0561H216.132C216.218 26.2935 216.644 27.2641 217.412 27.9681C218.202 28.6721 219.151 29.0241 220.26 29.0241C221.092 29.0241 221.786 28.8428 222.34 28.4801C222.916 28.0961 223.343 27.6055 223.62 27.0081H227.78C227.482 28.0108 226.98 28.9281 226.276 29.7601C225.594 30.5708 224.74 31.2108 223.716 31.6801C222.714 32.1495 221.572 32.3841 220.292 32.3841ZM220.324 19.0721C219.322 19.0721 218.436 19.3601 217.668 19.9361C216.9 20.4908 216.41 21.3441 216.196 22.4961H224.1C224.036 21.4508 223.652 20.6188 222.948 20.0001C222.244 19.3815 221.37 19.0721 220.324 19.0721Z" fill="#2F2056"/>
<path d="M200.174 32.0001V16.1281H203.822L204.206 19.1041C204.782 18.0801 205.56 17.2695 206.542 16.6721C207.544 16.0535 208.718 15.7441 210.062 15.7441V20.0641H208.91C208.014 20.0641 207.214 20.2028 206.51 20.4801C205.806 20.7575 205.251 21.2375 204.846 21.9201C204.462 22.6028 204.27 23.5521 204.27 24.7681V32.0001H200.174Z" fill="#2F2056"/>
<path d="M187.177 32.3841C185.811 32.3841 184.691 32.1708 183.817 31.7441C182.942 31.2961 182.291 30.7095 181.865 29.9841C181.438 29.2588 181.225 28.4588 181.225 27.5841C181.225 26.1121 181.801 24.9175 182.953 24.0001C184.105 23.0828 185.833 22.6241 188.137 22.6241H192.169V22.2401C192.169 21.1521 191.859 20.3521 191.241 19.8401C190.622 19.3281 189.854 19.0721 188.937 19.0721C188.105 19.0721 187.379 19.2748 186.761 19.6801C186.142 20.0641 185.758 20.6401 185.609 21.4081H181.609C181.715 20.2561 182.099 19.2535 182.761 18.4001C183.443 17.5468 184.318 16.8961 185.385 16.4481C186.451 15.9788 187.646 15.7441 188.969 15.7441C191.23 15.7441 193.011 16.3095 194.313 17.4401C195.614 18.5708 196.265 20.1708 196.265 22.2401V32.0001H192.777L192.393 29.4401C191.923 30.2935 191.262 30.9975 190.409 31.5521C189.577 32.1068 188.499 32.3841 187.177 32.3841ZM188.105 29.1841C189.278 29.1841 190.185 28.8001 190.825 28.0321C191.486 27.2641 191.902 26.3148 192.073 25.1841H188.585C187.497 25.1841 186.718 25.3868 186.249 25.7921C185.779 26.1761 185.545 26.6561 185.545 27.2321C185.545 27.8508 185.779 28.3308 186.249 28.6721C186.718 29.0135 187.337 29.1841 188.105 29.1841Z" fill="#2F2056"/>
<path d="M168.351 32.3838C166.089 32.3838 164.148 31.9038 162.527 30.9438C160.905 29.9625 159.657 28.6078 158.783 26.8798C157.908 25.1305 157.471 23.1145 157.471 20.8318C157.471 18.5492 157.908 16.5332 158.783 14.7838C159.657 13.0345 160.905 11.6692 162.527 10.6878C164.148 9.70649 166.089 9.21582 168.351 9.21582C171.039 9.21582 173.236 9.88782 174.943 11.2318C176.671 12.5545 177.748 14.4212 178.175 16.8318H173.663C173.385 15.6158 172.788 14.6665 171.871 13.9838C170.975 13.2798 169.78 12.9278 168.287 12.9278C166.217 12.9278 164.596 13.6318 163.423 15.0398C162.249 16.4478 161.663 18.3785 161.663 20.8318C161.663 23.2852 162.249 25.2158 163.423 26.6238C164.596 28.0105 166.217 28.7038 168.287 28.7038C169.78 28.7038 170.975 28.3838 171.871 27.7438C172.788 27.0825 173.385 26.1758 173.663 25.0238H178.175C177.748 27.3278 176.671 29.1305 174.943 30.4318C173.236 31.7332 171.039 32.3838 168.351 32.3838Z" fill="#2F2056"/>
<path d="M149.83 32V8.95996H153.926V32H149.83Z" fill="#2F2056"/>
<path d="M136.833 32.3841C135.468 32.3841 134.348 32.1708 133.473 31.7441C132.598 31.2961 131.948 30.7095 131.521 29.9841C131.094 29.2588 130.881 28.4588 130.881 27.5841C130.881 26.1121 131.457 24.9175 132.609 24.0001C133.761 23.0828 135.489 22.6241 137.793 22.6241H141.825V22.2401C141.825 21.1521 141.516 20.3521 140.897 19.8401C140.278 19.3281 139.51 19.0721 138.593 19.0721C137.761 19.0721 137.036 19.2748 136.417 19.6801C135.798 20.0641 135.414 20.6401 135.265 21.4081H131.265C131.372 20.2561 131.756 19.2535 132.417 18.4001C133.1 17.5468 133.974 16.8961 135.041 16.4481C136.108 15.9788 137.302 15.7441 138.625 15.7441C140.886 15.7441 142.668 16.3095 143.969 17.4401C145.27 18.5708 145.921 20.1708 145.921 22.2401V32.0001H142.433L142.049 29.4401C141.58 30.2935 140.918 30.9975 140.065 31.5521C139.233 32.1068 138.156 32.3841 136.833 32.3841ZM137.761 29.1841C138.934 29.1841 139.841 28.8001 140.481 28.0321C141.142 27.2641 141.558 26.3148 141.729 25.1841H138.241C137.153 25.1841 136.374 25.3868 135.905 25.7921C135.436 26.1761 135.201 26.6561 135.201 27.2321C135.201 27.8508 135.436 28.3308 135.905 28.6721C136.374 29.0135 136.993 29.1841 137.761 29.1841Z" fill="#2F2056"/>
<path d="M124.964 32.0001C123.3 32.0001 121.967 31.5947 120.964 30.7841C119.962 29.9734 119.46 28.5334 119.46 26.4641V19.5521H116.74V16.1281H119.46L119.94 11.8721H123.556V16.1281H127.844V19.5521H123.556V26.4961C123.556 27.2641 123.716 27.7974 124.036 28.0961C124.378 28.3734 124.954 28.5121 125.764 28.5121H127.748V32.0001H124.964Z" fill="#2F2056"/>
<path d="M98.4238 32.0001V16.1281H102.04L102.36 18.8161C102.85 17.8775 103.554 17.1308 104.472 16.5761C105.41 16.0215 106.509 15.7441 107.768 15.7441C109.73 15.7441 111.256 16.3628 112.344 17.6001C113.432 18.8375 113.976 20.6508 113.976 23.0401V32.0001H109.88V23.4241C109.88 22.0588 109.602 21.0135 109.048 20.2881C108.493 19.5628 107.629 19.2001 106.456 19.2001C105.304 19.2001 104.354 19.6055 103.608 20.4161C102.882 21.2268 102.52 22.3575 102.52 23.8081V32.0001H98.4238Z" fill="#2F2056"/>
<path d="M87.0111 32.3841C85.4111 32.3841 83.9924 32.0428 82.7551 31.3601C81.5178 30.6775 80.5471 29.7175 79.8431 28.4801C79.1391 27.2428 78.7871 25.8135 78.7871 24.1921C78.7871 22.5495 79.1284 21.0881 79.8111 19.8081C80.5151 18.5281 81.4751 17.5361 82.6911 16.8321C83.9284 16.1068 85.3791 15.7441 87.0431 15.7441C88.6004 15.7441 89.9764 16.0855 91.1711 16.7681C92.3658 17.4508 93.2938 18.3895 93.9551 19.5841C94.6378 20.7575 94.9791 22.0695 94.9791 23.5201C94.9791 23.7548 94.9684 24.0001 94.9471 24.2561C94.9471 24.5121 94.9364 24.7788 94.9151 25.0561H82.8511C82.9364 26.2935 83.3631 27.2641 84.1311 27.9681C84.9204 28.6721 85.8698 29.0241 86.9791 29.0241C87.8111 29.0241 88.5044 28.8428 89.0591 28.4801C89.6351 28.0961 90.0618 27.6055 90.3391 27.0081H94.4991C94.2004 28.0108 93.6991 28.9281 92.9951 29.7601C92.3124 30.5708 91.4591 31.2108 90.4351 31.6801C89.4324 32.1495 88.2911 32.3841 87.0111 32.3841ZM87.0431 19.0721C86.0404 19.0721 85.1551 19.3601 84.3871 19.9361C83.6191 20.4908 83.1284 21.3441 82.9151 22.4961H90.8191C90.7551 21.4508 90.3711 20.6188 89.6671 20.0001C88.9631 19.3815 88.0884 19.0721 87.0431 19.0721Z" fill="#2F2056"/>
<path d="M56.6445 32.0001V9.6001H64.2925C66.9165 9.6001 69.0712 10.0694 70.7565 11.0081C72.4632 11.9254 73.7219 13.2268 74.5325 14.9121C75.3645 16.5761 75.7805 18.5388 75.7805 20.8001C75.7805 23.0614 75.3645 25.0348 74.5325 26.7201C73.7219 28.3841 72.4632 29.6854 70.7565 30.6241C69.0712 31.5414 66.9165 32.0001 64.2925 32.0001H56.6445ZM60.7405 28.4801H64.1005C65.9779 28.4801 67.4605 28.1814 68.5485 27.5841C69.6365 26.9654 70.4152 26.0908 70.8845 24.9601C71.3539 23.8081 71.5885 22.4214 71.5885 20.8001C71.5885 19.2001 71.3539 17.8241 70.8845 16.6721C70.4152 15.5201 69.6365 14.6348 68.5485 14.0161C67.4605 13.3974 65.9779 13.0881 64.1005 13.0881H60.7405V28.4801Z" fill="#2F2056"/>
</svg>
